<svg width="512" height="512" viewBox="0 0 24 24" xmlns="http://www.w3.org/2000/svg" xmlns:xlink="http://www.w3.org/1999/xlink" id="Layer_1" overflow="hidden"><path d="M9.02 17.35C8.83 17.35 8.63 17.29 8.47 17.17 8.16 16.94 8.03 16.53 8.15 16.16L9.01 13.4 6.83 11.63C6.54 11.38 6.43 10.98 6.56 10.62 6.69 10.26 7.04 10.02 7.42 10.02L10.17 10.02 11.14 7.41C11.27 7.05 11.62 6.81 12 6.81 12.38 6.81 12.73 7.05 12.86 7.41L13.83 10.02 16.58 10.02C16.96 10.02 17.31 10.26 17.44 10.62 17.57 10.98 17.46 11.39 17.17 11.64L15 13.41 15.9 16.14C16.02 16.51 15.9 16.92 15.59 17.15 15.28 17.39 14.86 17.4 14.53 17.19L12.01 15.55 9.53 17.21C9.38 17.31 9.2 17.36 9.02 17.36ZM19 24 5 24C2.24 24 0 21.76 0 19L0 5C0 2.24 2.24 0 5 0L19 0C21.76 0 24 2.24 24 5L24 19C24 21.76 21.76 24 19 24ZM5 2C3.35 2 2 3.35 2 5L2 19C2 20.65 3.35 22 5 22L19 22C20.65 22 22 20.65 22 19L22 5C22 3.35 20.65 2 19 2L5 2Z" fill="#491478"/></svg>