<svg width="512" height="512" viewBox="0 0 24 24" xmlns="http://www.w3.org/2000/svg" xmlns:xlink="http://www.w3.org/1999/xlink" id="Layer_1" overflow="hidden"><path d="M23 24 2.988 24C1.333 24-0.012 22.654-0.012 21L-0.012 1C-0.012 0.448 0.436 0 0.988 0 1.54 0 1.988 0.448 1.988 1L1.988 21C1.988 21.552 2.437 22 2.988 22L23 22C23.552 22 24 22.447 24 23 24 23.553 23.552 24 23 24ZM14 13C14 13.552 14.448 14 15 14 15.552 14 16 13.552 16 13 16 12.448 15.552 12 15 12 14.448 12 14 12.448 14 13ZM20 7C20 7.552 20.448 8 21 8 21.552 8 22 7.552 22 7 22 6.448 21.552 6 21 6 20.448 6 20 6.448 20 7ZM11 18C11 18.552 11.448 19 12 19 12.552 19 13 18.552 13 18 13 17.448 12.552 17 12 17 11.448 17 11 17.448 11 18ZM20 17C20 17.552 20.448 18 21 18 21.552 18 22 17.552 22 17 22 16.448 21.552 16 21 16 20.448 16 20 16.448 20 17ZM9 5C9 5.552 9.448 6 10 6 10.552 6 11 5.552 11 5 11 4.448 10.552 4 10 4 9.448 4 9 4.448 9 5ZM5 12C5 12.552 5.448 13 6 13 6.552 13 7 12.552 7 12 7 11.448 6.552 11 6 11 5.448 11 5 11.448 5 12Z" fill="#491478"/></svg>