<svg width="512" height="512" viewBox="0 0 24 24" xmlns="http://www.w3.org/2000/svg" xmlns:xlink="http://www.w3.org/1999/xlink" id="Outline" overflow="hidden"><path d="M19 6 19 4C19 1.79086 17.2091 -8.88178e-16 15 -8.88178e-16L9 0C6.79086 0 5 1.79086 5 4L5 6C2.23995 6.00331 0.00330612 8.23995 1.77636e-15 11L0 16C0.00330612 18.7601 2.23995 20.9967 5 21 5 22.6569 6.34315 24 8 24L16 24C17.6569 24 19 22.6569 19 21 21.7601 20.9967 23.9967 18.7601 24 16L24 11C23.9967 8.23995 21.7601 6.00331 19 6ZM7 4C7 2.89543 7.89543 2 9 2L15 2C16.1046 2 17 2.89543 17 4L17 6 7 6ZM17 21C17 21.5523 16.5523 22 16 22L8 22C7.44772 22 7 21.5523 7 21L7 17C7 16.4477 7.44772 16 8 16L16 16C16.5523 16 17 16.4477 17 17ZM22 16C22 17.6569 20.6569 19 19 19L19 17C19 15.3431 17.6569 14 16 14L8 14C6.34315 14 5 15.3431 5 17L5 19C3.34315 19 2 17.6569 2 16L2 11C2 9.34315 3.34315 8 5 8L19 8C20.6569 8 22 9.34315 22 11Z" fill="#491478"/><path d="M18 10 16 10C15.4477 10 15 10.4477 15 11 15 11.5523 15.4477 12 16 12L18 12C18.5523 12 19 11.5523 19 11 19 10.4477 18.5523 10 18 10Z" fill="#491478"/></svg>