<svg width="512" height="512" viewBox="0 0 24 24" xmlns="http://www.w3.org/2000/svg" xmlns:xlink="http://www.w3.org/1999/xlink" id="Layer_1" overflow="hidden"><path d="M17 12C17 12.553 16.552 13 16 13L13 13 13 16C13 16.553 12.552 17 12 17 11.448 17 11 16.553 11 16L11 13 8 13C7.448 13 7 12.553 7 12 7 11.447 7.448 11 8 11L11 11 11 8C11 7.447 11.448 7 12 7 12.552 7 13 7.447 13 8L13 11 16 11C16.552 11 17 11.447 17 12ZM24 5 24 19C24 21.757 21.757 24 19 24L5 24C2.243 24 0 21.757 0 19L0 5C0 2.243 2.243 0 5 0L19 0C21.757 0 24 2.243 24 5ZM22 5C22 3.346 20.654 2 19 2L5 2C3.346 2 2 3.346 2 5L2 19C2 20.654 3.346 22 5 22L19 22C20.654 22 22 20.654 22 19L22 5Z" fill="#491478"/></svg>