<svg width="512" height="512" viewBox="0 0 24 24" xmlns="http://www.w3.org/2000/svg" xmlns:xlink="http://www.w3.org/1999/xlink" id="Outline" overflow="hidden"><path d="M23.119 0.882C22.3898 0.143975 21.328-0.159398 20.319 0.082L4.319 3.452C1.58592 3.82682-0.325826 6.34627 0.0489965 9.07935 0.197164 10.1597 0.694826 11.162 1.466 11.933L3.184 13.65C3.37179 13.8377 3.47721 14.0925 3.477 14.358L3.477 17.526C3.47921 17.9714 3.58175 18.4106 3.777 18.811L3.769 18.818 3.795 18.844C4.08801 19.4331 4.56658 19.9096 5.157 20.2L5.183 20.226 5.19 20.218C5.59036 20.4133 6.02957 20.5158 6.475 20.518L9.643 20.518C9.90805 20.5178 10.1623 20.6228 10.35 20.81L12.067 22.527C12.9972 23.4675 14.2643 23.9977 15.587 24 16.1328 23.9993 16.6748 23.9102 17.192 23.736 18.9737 23.151 20.2696 21.6063 20.536 19.75L23.911 3.715C24.165 2.69708 23.8641 1.62062 23.119 0.882ZM4.6 12.238 2.881 10.521C2.0638 9.72348 1.78229 8.52493 2.159 7.447 2.52433 6.34082 3.50113 5.54922 4.659 5.421L20.5 2.086 5.475 17.113 5.475 14.358C5.47806 13.5629 5.163 12.7995 4.6 12.238ZM18.571 19.408C18.3429 21.0491 16.8276 22.1945 15.1865 21.9664 14.5415 21.8767 13.9433 21.5796 13.482 21.12L11.762 19.4C11.2012 18.8361 10.4382 18.52 9.643 18.522L6.888 18.522 21.915 3.5Z" fill="#491478"/></svg>